<svg width="100%" height="100%" id="svg" viewBox="0 0 1440 600"  fill-opacity="1" fill="green"  xmlns="http://www.w3.org/2000/svg" class="transition duration-300 ease-in-out delay-150"><defs><linearGradient id="gradient" x1="0%" y1="50%" x2="100%" y2="50%"><stop offset="5%" stop-color="#002bdc88"></stop><stop offset="95%" stop-color="#32ded488"></stop></linearGradient></defs><path d="M 0,600 C 0,600 0,200 0,200 C 93.29186602870814,209.98086124401914 186.58373205741628,219.96172248803828 288,203 C 389.4162679425837,186.03827751196172 498.9569377990431,142.13397129186603 591,134 C 683.0430622009569,125.86602870813398 757.5885167464114,153.50239234449765 855,189 C 952.4114832535886,224.49760765550235 1072.688995215311,267.85645933014354 1174,271 C 1275.311004784689,274.14354066985646 1357.6555023923445,237.07177033492823 1440,200 C 1440,200 1440,600 1440,600 Z" stroke="none" stroke-width="0" fill-opacity="1" fill="url(#gradient)" class="transition-all duration-300 ease-in-out delay-150 path-0" transform="rotate(-180 720 300)"></path><defs><linearGradient id="gradient" x1="0%" y1="50%" x2="100%" y2="50%"><stop offset="5%" stop-color="#002bdcff"></stop><stop offset="95%" stop-color="#32ded4ff"></stop></linearGradient></defs><path d="M 0,600 C 0,600 0,400 0,400 C 90.22009569377991,364.1531100478469 180.44019138755982,328.3062200956938 286,334 C 391.5598086124402,339.6937799043062 512.4593301435406,386.9282296650718 621,418 C 729.5406698564594,449.0717703349282 825.7224880382777,463.9808612440191 910,444 C 994.2775119617223,424.0191387559809 1066.6507177033493,369.14832535885165 1153,356 C 1239.3492822966507,342.85167464114835 1339.6746411483255,371.42583732057415 1440,400 C 1440,400 1440,600 1440,600 Z" stroke="none" stroke-width="0" fill-opacity="1" fill="url(#gradient)" class="transition-all duration-300 ease-in-out delay-150 path-1" transform="rotate(-180 720 300)"></path></svg>