<svg width="1440" height="600" xmlns="http://www.w3.org/2000/svg" fill-opacity="1" class="transition duration-300 ease-in-out delay-150"   style="opacity:1;fill:#151518">
 <defs>
  <linearGradient y2="50%" x2="100%" y1="50%" x1="0%" id="gradient" fill-opacity="1">
   <stop stop-color="#002bdc88" offset="5%"/>
   <stop stop-color="#32ded488" offset="95%"/>
  </linearGradient>
  <linearGradient y2="50%" x2="100%" y1="50%" x1="0%" id="gradient" fill-opacity="1">
   <stop stop-color="#002bdcff" offset="5%"/>
   <stop stop-color="#32ded4ff" offset="95%"/>
  </linearGradient>
 </defs>

 <g>
  <title>Layer 1</title>
  <path id="svg_1" fill-opacity="1" stroke-opacity="0" transform="rotate(-180 720 300)" class="transition-all duration-300 ease-in-out delay-150 path-0" style="opacity:1;fill:url(#gradient)" stroke-width="0" d="m0,600c0,0 0,-400 0,-400c93.29187,9.98086 186.58373,19.96172 288,3c101.41627,-16.96172 210.95694,-60.86603 303,-69c92.04306,-8.13397 166.58852,19.50239 264,55c97.41148,35.49761 217.689,78.85646 319,82c101.311,3.14354 183.6555,-33.92823 266,-71c0,0 0,400 0,400l-1440,0z"/>
  <path id="svg_2" fill-opacity="1"  stroke-opacity="0" transform="rotate(-180 720 300)" class="transition-all duration-300 ease-in-out delay-150 path-1" style="opacity:1;fill:url(#gradient)" stroke-width="0" d="m0,600c0,0 0,-200 0,-200c90.2201,-35.84689 180.44019,-71.69378 286,-66c105.55981,5.69378 226.45933,52.92823 335,84c108.54067,31.07177 204.72249,45.98086 289,26c84.27751,-19.98086 156.65072,-74.85167 243,-88c86.34928,-13.14833 186.67464,15.42584 287,44c0,0 0,200 0,200l-1440,0z"/>
 </g>
</svg>