<svg style="object-fit:cover" id="my-svg" version="1" baseProfile="full" width="100%" height="100%" viewBox="0 0 1920 937" xmlns="http://www.w3.org/2000/svg"><rect width="1920" height="937" fill="#000"/><defs><linearGradient id="linear-gradient" x1="0" x2="1" y1="0" y2="1"><stop offset="0%" stop-color="#c81d11ff"/><stop offset="100%" stop-color="#1c39bbff"/></linearGradient></defs><path transform="scale(1, -1)" style="transform-origin:center" d="M 0,937 V 0,749 C 71.07126807475746,828.1276930397314 142.1425361495149,907.2553860794629 201,920 C 259.8574638504851,932.7446139205371 306.50112347669784,879.10614872188 373,794 C 439.49887652330216,708.89385127812 525.8529699436941,592.3200190330169 586,528 C 646.1470300563059,463.679980966983 680.0869967485261,451.613775146052 748,481 C 815.9130032514739,510.386224853948 917.799043062201,581.2248803827752 994,628 C 1070.200956937799,674.7751196172248 1120.7168310026698,697.4867033228476 1182,748 C 1243.2831689973302,798.5132966771524 1315.3336329271194,876.8283063258348 1376,885 C 1436.6663670728806,893.1716936741652 1485.9486372888525,831.2000713738138 1550,800 C 1614.0513627111475,768.7999286261862 1692.8718179174707,768.3714081789103 1757,765 C 1821.1281820825293,761.6285918210897 1870.5640910412646,755.3142959105448 1920,749 C 1920,749 1920,937 1920,937 Z" stroke="none" stroke-width="0" fill="url(#linear-gradient)" class="transition-all duration-300 ease-in-out delay-150"/></svg>