<?xml version="1.0" standalone="no"?>
<!DOCTYPE svg PUBLIC "-//W3C//DTD SVG 20010904//EN"
 "http://www.w3.org/TR/2001/REC-SVG-20010904/DTD/svg10.dtd">
<svg version="1.0" xmlns="http://www.w3.org/2000/svg"
 width="512.000000pt" height="512.000000pt" viewBox="0 0 512.000000 512.000000"
 preserveAspectRatio="xMidYMid meet">
<metadata>
Created by potrace 1.14, written by Peter Selinger 2001-2017
</metadata>
<g transform="translate(0.000000,512.000000) scale(0.100000,-0.100000)"
fill="#000000" stroke="none">
<path d="M2349 5106 c-2 -2 -33 -6 -69 -10 -351 -35 -748 -172 -1052 -363
-392 -247 -668 -541 -920 -983 -67 -117 -173 -388 -214 -544 -55 -211 -66
-308 -69 -616 -4 -325 6 -426 61 -640 192 -737 668 -1330 1343 -1670 214 -108
483 -199 661 -225 24 -4 47 -8 50 -10 4 -2 29 -7 56 -10 27 -4 76 -10 109 -15
64 -9 540 -6 565 3 8 3 39 8 69 12 30 3 89 13 130 21 42 9 86 18 99 20 56 11
267 80 367 120 274 112 590 315 780 502 269 263 398 438 550 742 124 248 206
515 240 775 17 132 17 572 0 690 -48 341 -162 665 -338 961 -350 590 -926
1011 -1607 1177 -80 20 -165 38 -190 41 -25 4 -63 9 -85 12 -46 6 -530 15
-536 10z m556 -640 c55 -9 123 -23 150 -30 28 -8 70 -20 95 -26 l44 -12 -54
-18 c-30 -10 -109 -34 -175 -55 -267 -83 -588 -194 -670 -230 -16 -8 -55 -24
-85 -35 -104 -41 -320 -151 -412 -212 -336 -221 -435 -504 -282 -809 84 -169
279 -328 668 -545 357 -200 474 -268 566 -330 101 -67 200 -149 200 -165 0
-11 -112 -84 -195 -127 -226 -116 -624 -266 -1100 -415 -76 -24 -257 -80 -465
-145 l-95 -30 -23 26 c-12 15 -33 40 -45 55 -12 15 -30 38 -40 50 -42 49 -130
192 -176 284 -80 160 -128 293 -160 443 -38 181 -43 218 -45 380 -9 537 181
1008 562 1393 286 290 623 465 1062 552 14 3 54 8 90 11 36 4 66 7 68 9 1 1
96 1 210 0 138 -1 240 -8 307 -19z m1126 -608 c118 -125 247 -319 329 -495 56
-120 119 -306 135 -403 3 -19 10 -53 15 -76 24 -106 33 -395 16 -539 -49 -438
-270 -877 -593 -1178 -31 -29 -63 -59 -72 -67 -9 -8 -45 -37 -81 -63 -36 -26
-73 -55 -83 -63 -29 -23 -207 -124 -277 -156 -132 -61 -315 -123 -423 -143
-12 -3 -44 -9 -72 -15 -106 -21 -156 -24 -350 -25 -270 0 -408 20 -625 92
-140 46 -144 39 77 110 109 35 207 68 218 72 11 5 74 28 140 51 339 120 695
283 874 401 271 179 405 399 396 650 -11 297 -234 571 -679 836 -50 29 -98 58
-106 63 -8 5 -53 30 -100 56 -47 26 -101 56 -120 67 -19 11 -55 31 -80 45
-120 66 -260 148 -303 177 l-48 33 57 31 c62 33 258 118 339 146 28 9 59 21
70 26 70 31 470 158 995 314 124 37 239 76 255 86 17 10 34 19 38 19 4 0 30
-24 58 -52z"/>
</g>
</svg>
